<?xml version="1.0" encoding="UTF-8"?>
<svg width="29px" height="34px" viewBox="0 0 29 34" version="1.1" xmlns="http://www.w3.org/2000/svg" xmlns:xlink="http://www.w3.org/1999/xlink">
    <title>book-icon</title>
    <g id="Page-1" stroke="none" stroke-width="1" fill="none" fill-rule="evenodd">
        <g id="Desktop-HD" transform="translate(-845.000000, -557.000000)" fill="#5A5A5D" fill-rule="nonzero">
            <g id="book-icon" transform="translate(844.000000, 557.000000)">
                <path d="M28.426,33.542 L4.472,33.542 C2.41709632,33.3867875 0.869285343,31.6076073 1,29.551 L1,4.906 C1,2.201 2.914,0 5.267,0 L7.419,0 C7.76462991,0.025605503 8.0249172,0.325181432 8.002,0.671 L8.002,25.492 L9.17,25.492 L9.17,0.671 C9.14763979,0.325369092 9.4076337,0.0261308226 9.753,0 L24.304,0 C26.898,0 29.004,2.427 29.004,5.409 L29.004,26.163 C29.005669,26.3318106 28.9483751,26.4959117 28.842,26.627 L28.492,27.075 C27.4023138,28.5206572 27.4023138,30.5133428 28.492,31.959 L28.771,32.315 C28.93751,32.4510282 29.0322692,32.6560325 29.028,32.871 C29.0503426,33.2169926 28.789766,33.516388 28.444,33.542 C28.4380138,33.5414242 28.4319862,33.5414242 28.426,33.542 L28.426,33.542 Z M2.168,29.483 C2.05503421,30.8677058 3.08364539,32.0828087 4.468,32.2 L27.189,32.2 C26.9555085,31.7781453 26.7799286,31.3267503 26.667,30.858 L9.17,30.858 C8.83656688,30.8097118 8.5891751,30.5239116 8.5891751,30.187 C8.5891751,29.8500884 8.83656688,29.5642882 9.17,29.516 L26.512,29.516 C26.5083594,28.5783306 26.7430353,27.6551118 27.194,26.833 L4.472,26.833 C3.10806087,26.937501 2.08137921,28.1188087 2.168,29.484 L2.168,29.483 Z M2.168,4.905 L2.168,26.505 C2.7640964,25.8670664 3.59496964,25.5003985 4.468,25.49 L6.831,25.49 L6.831,1.34 L5.267,1.34 C3.43136671,1.47866092 2.04932626,3.06896626 2.168,4.906 L2.168,4.905 Z M27.842,25.491 L27.842,5.409 C27.9755891,3.31350915 26.3987614,1.50040239 24.305,1.342 L18.505,1.342 L18.505,13.953 C18.5139812,14.2267724 18.3556506,14.478518 18.105,14.589 C18.0456882,14.6120347 17.9826276,14.6239009 17.919,14.624 C17.7289427,14.6198463 17.5539195,14.5197254 17.454,14.358 L15.001,10.636 L12.548,14.358 C12.4151571,14.5813908 12.1420245,14.678458 11.898,14.589 C11.6471606,14.4787369 11.4887398,14.2268478 11.498,13.953 L11.498,1.342 L10.337,1.342 L10.337,25.492 L27.842,25.491 Z M15.47,9.121 L17.339,11.957 L17.339,1.342 L12.671,1.342 L12.671,11.958 L14.54,9.122 C14.6371301,8.95748961 14.8139557,8.85654508 15.005,8.85654508 C15.1960443,8.85654508 15.3728699,8.95748961 15.47,9.122 L15.47,9.121 Z" id="_1"></path>
            </g>
        </g>
    </g>
</svg>