<?xml version="1.0" encoding="UTF-8"?>
<svg width="40px" height="36px" viewBox="0 0 40 36" version="1.1" xmlns="http://www.w3.org/2000/svg" xmlns:xlink="http://www.w3.org/1999/xlink">
    <title>chat-icon</title>
    <g id="Page-1" stroke="none" stroke-width="1" fill="none" fill-rule="evenodd">
        <g id="Desktop-HD" transform="translate(-682.000000, -556.000000)" fill="#5A5A5D" fill-rule="nonzero">
            <g id="chat-icon" transform="translate(682.000000, 556.000000)">
                <path d="M26.737,35.589 C26.5787643,35.5884795 26.425264,35.5349656 26.301,35.437 L17.667,28.716 C7.579,27.946 -3.63797881e-12,21.816 -3.63797881e-12,14.401 C-3.63797881e-12,6.461 8.937,0.000999999999 19.923,0.000999999999 C30.883,0.000999999999 39.799,6.462 39.799,14.401 C39.799,20.301 34.986,25.457 27.483,27.65 L27.483,34.781 C27.4877322,35.0767411 27.33302,35.3521669 27.078,35.502 C26.9733259,35.5588782 26.8561291,35.589 26.737,35.589 L26.737,35.589 Z M19.923,1.618 C9.761,1.618 1.493,7.352 1.493,14.4 C1.493,21.006 8.58,26.473 17.976,27.116 C18.1177155,27.126126 18.2531744,27.1783595 18.365,27.266 L25.99,33.202 L25.99,27.021 C25.9811896,26.66167 26.2131118,26.3405783 26.557,26.236 C33.695,24.327 38.305,19.68 38.305,14.4 C38.306,7.352 30.06,1.618 19.923,1.618 Z" id="_28"></path>
            </g>
        </g>
    </g>
</svg>