<?xml version="1.0" encoding="UTF-8"?>
<svg width="38px" height="35px" viewBox="0 0 38 35" version="1.1" xmlns="http://www.w3.org/2000/svg" xmlns:xlink="http://www.w3.org/1999/xlink">
    <title>clock-icon</title>
    <g id="Page-1" stroke="none" stroke-width="1" fill="none" fill-rule="evenodd">
        <g id="Desktop-HD" transform="translate(-599.000000, -556.000000)" fill="#5A5A5D" fill-rule="nonzero">
            <g id="clock-icon" transform="translate(599.000000, 556.000000)">
                <path d="M3.64,19.016 C3.64,10.216 11.228,3.057 20.553,3.057 C29.878,3.057 37.467,10.216 37.467,19.016 C37.467,27.816 29.879,34.975 20.553,34.975 C11.227,34.975 3.64,27.816 3.64,19.016 Z M5.347,19.016 C5.347,26.928 12.169,33.364 20.553,33.364 C28.937,33.364 35.76,26.928 35.76,19.016 C35.76,11.104 28.938,4.668 20.553,4.668 C12.168,4.668 5.347,11.104 5.347,19.016 Z M20.58,21.384 C20.3617254,21.3904526 20.1498734,21.3096817 19.9912979,21.159551 C19.8327223,21.0094203 19.7404902,20.8023009 19.735,20.584 L19.735,10.218 C19.7569339,9.76728616 20.1287528,9.41312177 20.58,9.41312177 C21.0312472,9.41312177 21.4030661,9.76728616 21.425,10.218 L21.425,19.789 L29.878,19.789 C30.3198278,19.789 30.678,20.1471722 30.678,20.589 C30.678,21.0308278 30.3198278,21.389 29.878,21.389 L20.58,21.384 Z M0.551,11.764 C0.345326364,11.6991982 0.175309452,11.5527416 0.0807674651,11.3589305 C-0.0137745215,11.1651194 -0.0245372232,10.9409778 0.051,10.739 C1.84072498,5.99503578 5.44599149,2.15910994 10.07,0.079 C10.4859708,-0.113736769 10.9800804,0.0511125675 11.197,0.455 C11.2925477,0.648092134 11.3037501,0.872159536 11.2279383,1.07381892 C11.1521265,1.2754783 10.9960886,1.43667339 10.797,1.519 C6.56397753,3.42903842 3.26622352,6.94666669 1.633,11.294 C1.50014257,11.6129554 1.18648473,11.8188924 0.841,11.8140853 C0.742244791,11.8133571 0.644268693,11.7964647 0.551,11.764 L0.551,11.764 Z" id="_29"></path>
            </g>
        </g>
    </g>
</svg>