<svg xmlns="http://www.w3.org/2000/svg" width="24.582" height="22.311" viewBox="0 0 24.582 22.311">
  <g id="company-color-icon" transform="translate(23718 3402)">
    <path id="_18" data-name="18" d="M656.679,578.217a3.3,3.3,0,0,1-3.264-3.325V563.329A3.3,3.3,0,0,1,656.679,560h8.357a.455.455,0,0,1,0,.911h-8.357a2.4,2.4,0,0,0-2.37,2.414v11.563a2.4,2.4,0,0,0,2.37,2.415h14.033a2.4,2.4,0,0,0,2.37-2.415v-5.781a.447.447,0,1,1,.894,0v5.781a3.3,3.3,0,0,1-3.264,3.325Zm7.755-6.17a.461.461,0,0,1-.106-.595l4.025-6.74a5.516,5.516,0,0,1-1.109-3.329,5.378,5.378,0,1,1,5.377,5.478,5.263,5.263,0,0,1-2.109-.439l-5.486,5.589a.441.441,0,0,1-.592.036Zm2.594-3.363,2.661-2.711a5.426,5.426,0,0,1-.708-.561Zm5.593-2.733a4.568,4.568,0,1,0-4.483-4.567,4.6,4.6,0,0,0,1.068,2.956.45.45,0,0,1,.06.07,4.525,4.525,0,0,0,1.3,1.033.44.44,0,0,1,.1.051A4.388,4.388,0,0,0,672.621,565.951Zm-.447-1.594a.451.451,0,0,1,.447-.455,2.5,2.5,0,0,0,2.472-2.518,2.541,2.541,0,0,0-.626-1.674.462.462,0,0,1,.036-.643.443.443,0,0,1,.631.037,3.46,3.46,0,0,1,.853,2.281,3.4,3.4,0,0,1-3.366,3.429A.451.451,0,0,1,672.174,564.358Z" transform="translate(-24371.416 -3957.907)" fill="#5a5a5d"/>
  </g>
</svg>
