<?xml version="1.0" encoding="UTF-8"?>
<svg width="26px" height="35px" viewBox="0 0 26 35" version="1.1" xmlns="http://www.w3.org/2000/svg" xmlns:xlink="http://www.w3.org/1999/xlink">
    <title>document-icon</title>
    <g id="Page-1" stroke="none" stroke-width="1" fill="none" fill-rule="evenodd">
        <g id="Desktop-HD" transform="translate(-528.000000, -556.000000)" fill="#5A5A5D" fill-rule="nonzero">
            <g id="document-icon" transform="translate(528.000000, 556.000000)">
                <path d="M8.443,34.665 C8.23990698,34.6642855 8.04605924,34.5800196 7.907,34.432 L0.222,26.376 C0.0788095687,26.2239773 -0.000643409533,26.0228396 1.13127173e-13,25.814 L1.13127173e-13,5.884 C-0.0693371801,2.7122555 2.4395261,0.0817720426 5.611,0.001 L20.169,0.001 C23.3401672,0.0817677434 25.8484563,2.71258692 25.778,5.884 L25.778,28.784 C25.8484563,31.9554131 23.3401672,34.5862323 20.169,34.667 L8.443,34.665 Z M20.17,33.075 C22.4843277,33.016605 24.3149987,31.0964802 24.263,28.782 L24.263,5.882 C24.3149987,3.56751977 22.4843277,1.64739497 20.17,1.589 L5.611,1.589 C3.29627819,1.64685358 1.46500656,3.56713914 1.517,5.882 L1.517,24.341 L4.945,24.341 C7.41821432,24.3012408 9.47396219,26.2368706 9.583,28.708 L9.583,33.073 L20.17,33.075 Z M8.07,32.352 L8.07,28.71 C7.92972647,27.1032362 6.56016135,25.8850163 4.948,25.933 L1.948,25.933 L8.07,32.352 Z M6.602,20.513 C6.19727414,20.4675369 5.89130286,20.1252713 5.89130286,19.718 C5.89130286,19.3107287 6.19727414,18.9684631 6.602,18.923 L18.733,18.923 C19.1377259,18.9684631 19.4436971,19.3107287 19.4436971,19.718 C19.4436971,20.1252713 19.1377259,20.4675369 18.733,20.513 L6.602,20.513 Z M6.602,15.742 C6.19727414,15.6965369 5.89130286,15.3542713 5.89130286,14.947 C5.89130286,14.5397287 6.19727414,14.1974631 6.602,14.152 L18.733,14.152 C19.1377259,14.1974631 19.4436971,14.5397287 19.4436971,14.947 C19.4436971,15.3542713 19.1377259,15.6965369 18.733,15.742 L6.602,15.742 Z M6.602,10.972 C6.19727414,10.9265369 5.89130286,10.5842713 5.89130286,10.177 C5.89130286,9.76972869 6.19727414,9.42746311 6.602,9.382 L18.733,9.382 C19.1377259,9.42746311 19.4436971,9.76972869 19.4436971,10.177 C19.4436971,10.5842713 19.1377259,10.9265369 18.733,10.972 L6.602,10.972 Z" id="_6"></path>
            </g>
        </g>
    </g>
</svg>