<svg xmlns="http://www.w3.org/2000/svg" width="34.024" height="35.162" viewBox="0 0 34.024 35.162">
  <g id="edit-icon" transform="translate(-1166.597 -402.238)">
    <path id="_2" data-name="2" d="M212.3,356.683l-5.976-6a.72.72,0,0,1-.073-.866.438.438,0,0,1,.7-.09l3.089,3.1a.409.409,0,0,1,.083-.008h4.93l3.213-3.392a.436.436,0,0,1,.7.068.721.721,0,0,1-.055.868l-5.976,6.308a.428.428,0,0,1-.638.009Zm.306-1.279,1.282-1.353h-2.629Zm-6.234-7.6a.662.662,0,0,1-.232-.521V330.049a.566.566,0,0,1,.5-.616h11.953a.566.566,0,0,1,.5.616v17.232a.662.662,0,0,1-.232.521.432.432,0,0,1-.266.095.414.414,0,0,1-.215-.061l-5.762-3.412-5.761,3.412a.415.415,0,0,1-.215.061A.432.432,0,0,1,206.367,347.8Zm6.457-4.615,5.263,3.116v-15.64h-4.98v9.847a.509.509,0,1,1-1,0v-9.847h-4.98V346.3l5.263-3.116a.411.411,0,0,1,.43,0ZM206.633,328.2a.566.566,0,0,1-.5-.616V325.51c0-2.588,1.7-4.693,3.8-4.693h5.354c2.094,0,3.8,2.105,3.8,4.693v2.077a.566.566,0,0,1-.5.616Zm.5-2.692v1.462h10.957V325.51c0-1.909-1.257-3.462-2.8-3.462h-5.354C208.388,322.048,207.131,323.6,207.131,325.51Z" transform="translate(1259.191 27.023) rotate(43)" fill="#fff"/>
  </g>
</svg>
