<?xml version="1.0" encoding="UTF-8"?>
<svg width="32px" height="36px" viewBox="0 0 32 36" version="1.1" xmlns="http://www.w3.org/2000/svg" xmlns:xlink="http://www.w3.org/1999/xlink">
    <title>notification-icon</title>
    <g id="Page-1" stroke="none" stroke-width="1" fill="none" fill-rule="evenodd">
        <g id="Desktop-HD" transform="translate(-767.000000, -556.000000)" fill="#fff" fill-rule="nonzero">
            <g id="notification-icon" transform="translate(767.000000, 556.000000)">
                <path d="M2.406,30.29 C2.406,27.048 9.382,25.299 15.948,25.299 C22.514,25.299 29.489,27.048 29.489,30.29 C29.489,33.532 22.513,35.28 15.948,35.28 C9.383,35.28 2.406,33.529 2.406,30.29 Z M3.726,30.29 C3.726,31.802 8.376,33.911 15.947,33.911 C23.518,33.911 28.168,31.802 28.168,30.29 C28.168,29.008 24.823,27.295 19.189,26.804 C19.1904968,26.8299785 19.1904968,26.8560215 19.189,26.882 C19.2726205,28.2537009 18.589103,29.5587457 17.4139302,30.2711534 C16.2387575,30.9835611 14.7655527,30.9859543 13.5880715,30.2773684 C12.4105904,29.5687826 11.7228365,28.2659653 11.802,26.894 C6.717,27.48 3.726,29.077 3.726,30.29 L3.726,30.29 Z M13.034,26.883 C12.9975485,27.7880692 13.4596211,28.6404327 14.2379221,29.1038186 C15.0162231,29.5672044 15.9857769,29.5672044 16.7640779,29.1038186 C17.5423789,28.6404327 18.0044515,27.7880692 17.968,26.883 C17.9679582,26.8283817 17.974676,26.7739682 17.988,26.721 C17.3346667,26.6863333 16.6546667,26.6686667 15.948,26.668 C14.918,26.668 13.943,26.707 13.026,26.778 C13.0314464,26.8127325 13.0341215,26.8478433 13.034,26.883 L13.034,26.883 Z M30.805,29.017 L26.78,23.829 C25.3240346,21.9368913 24.7182195,19.5255806 25.107,17.17 L25.226,16.445 C25.6416269,13.9481112 24.9682078,11.3927586 23.376,9.425 C21.8253257,7.49437603 19.4852547,6.367893 17.009,6.36 L14.89,6.36 C12.4140961,6.36819462 10.0744542,7.49464803 8.524,9.425 C6.93179219,11.3927586 6.25837306,13.9481112 6.674,16.445 L6.793,17.17 C7.18206187,19.5254406 6.5766126,21.9367364 5.121,23.829 L1.09,29.017 C0.991192616,29.1480914 0.842988683,29.2329743 0.67992174,29.2518696 C0.516854796,29.270765 0.353167057,29.2220226 0.227,29.117 C-0.0367873536,28.8911372 -0.0776507657,28.4983212 0.134,28.223 L4.159,23.035 C5.39462269,21.4305191 5.90821208,19.3848541 5.577,17.387 L5.458,16.662 C4.98109115,13.7972529 5.75390909,10.8654226 7.581,8.608 C8.92453365,6.94129479 10.7924898,5.77822774 12.881,5.308 L12.881,3.156 C12.8525399,2.04159357 13.4308024,0.999440918 14.3914425,0.433859684 C15.3520827,-0.131721549 16.5439173,-0.131721549 17.5045575,0.433859684 C18.4651976,0.999440918 19.0434601,2.04159357 19.015,3.156 L19.015,5.308 C21.1036011,5.77800611 22.9716251,6.94111544 24.315,8.608 C26.1418562,10.8655416 26.914646,13.7972651 26.438,16.662 L26.319,17.387 C25.9880692,19.3849944 26.5020245,21.4306742 27.738,23.035 L31.763,28.223 C31.9746508,28.4983212 31.9337874,28.8911372 31.67,29.117 C31.5438329,29.2220226 31.3801452,29.270765 31.2170783,29.2518696 C31.0540113,29.2329743 30.9058074,29.1480914 30.807,29.017 L30.805,29.017 Z M17.79,5.087 L17.79,3.154 C17.8121528,2.48216461 17.4663764,1.85166168 16.8879615,1.50918572 C16.3095467,1.16670977 15.5904533,1.16670977 15.0120385,1.50918572 C14.4336236,1.85166168 14.0878472,2.48216461 14.11,3.154 L14.11,5.087 L17.79,5.087 L17.79,5.087 Z" id="_35"></path>
            </g>
        </g>
    </g>
</svg>