<svg xmlns="http://www.w3.org/2000/svg" width="12.664" height="20.186" viewBox="0 0 12.664 20.186">
  <g id="phone-color-icon" transform="translate(23766 3401)">
    <path id="_7" data-name="7" d="M96.142,462.534c-2.284,0-4.141-1.51-4.141-3.367V445.714c0-1.857,1.858-3.367,4.141-3.367h4.38c2.284,0,4.142,1.51,4.142,3.367v13.453c0,1.856-1.858,3.367-4.142,3.367Zm-3.159-16.819v13.453c0,1.392,1.447,2.568,3.159,2.568h4.38c1.712,0,3.159-1.176,3.159-2.568V445.714c0-1.392-1.447-2.568-3.159-2.568h-4.38C94.43,443.147,92.983,444.323,92.983,445.714Zm4.364,14.14a1.005,1.005,0,1,1,.984.8A.906.906,0,0,1,97.348,459.854Zm0-14.6h0Zm0,0a.408.408,0,1,1,0-.8h1.966a.408.408,0,1,1,0,.8Z" transform="translate(-23858 -3843.347)" fill="#5a5a5d"/>
  </g>
</svg>
