<svg xmlns="http://www.w3.org/2000/svg" width="18.697" height="22.1" viewBox="0 0 18.697 22.1">
  <g id="ratings-color-icon" transform="translate(23657 3402)">
    <path id="_22" data-name="22" d="M440.517,691.083l-3.839-2.694-3.834,2.694a.467.467,0,0,1-.451.042.387.387,0,0,1-.24-.349v-5.8a8.362,8.362,0,0,1-4.861-7.438c0-4.675,4.194-8.479,9.349-8.479s9.349,3.8,9.349,8.479a8.366,8.366,0,0,1-4.784,7.4v5.834a.387.387,0,0,1-.24.349.462.462,0,0,1-.188.039A.452.452,0,0,1,440.517,691.083Zm-3.578-3.492,3.411,2.394v-5.239a.369.369,0,0,1,0-.091.394.394,0,0,1,.222-.287,7.627,7.627,0,0,0,4.558-6.825c0-4.247-3.81-7.7-8.493-7.7s-8.493,3.455-8.493,7.7a7.628,7.628,0,0,0,4.627,6.859.386.386,0,0,1,.233.346v5.238l3.406-2.394a.465.465,0,0,1,.524,0Zm1.811-5.992-2.138-1.417-2.138,1.417a1.15,1.15,0,0,1-1.236,0,.9.9,0,0,1-.38-1.064l.826-2.282-2.147-1.406a.9.9,0,0,1-.384-1.063,1.042,1.042,0,0,1,1-.656l2.65.005.812-2.287a1.084,1.084,0,0,1,2,0l.812,2.286,2.648-.005a1.04,1.04,0,0,1,1,.657.9.9,0,0,1-.383,1.062l-2.147,1.406.825,2.281a.9.9,0,0,1-.381,1.066,1.136,1.136,0,0,1-1.234,0Zm-1.886-2.211,2.39,1.584a.179.179,0,0,0,.227,0,.166.166,0,0,0,.071-.2l-.924-2.551a.37.37,0,0,1,.156-.436l2.4-1.572a.163.163,0,0,0,.07-.193.189.189,0,0,0-.183-.121l-2.961.006h0a.426.426,0,0,1-.407-.269l-.907-2.556a.209.209,0,0,0-.368,0l-.908,2.557a.425.425,0,0,1-.407.269h0l-2.96-.006a.189.189,0,0,0-.185.121.163.163,0,0,0,.071.194l2.4,1.572a.369.369,0,0,1,.155.436l-.923,2.551a.165.165,0,0,0,.07.195.181.181,0,0,0,.229,0l2.389-1.583a.461.461,0,0,1,.5,0Z" transform="translate(-24084.293 -4071.064)" fill="#5a5a5d"/>
  </g>
</svg>
