<?xml version="1.0" encoding="UTF-8"?>
<svg width="59px" height="60px" viewBox="0 0 59 60" version="1.1" xmlns="http://www.w3.org/2000/svg" xmlns:xlink="http://www.w3.org/1999/xlink">
    <title>search-icon</title>
    <g id="Page-1" stroke="none" stroke-width="1" fill="none" fill-rule="evenodd" stroke-opacity="0">
        <g id="Desktop-HD" transform="translate(-125.000000, -525.000000)" fill="#5A5A5D" fill-rule="nonzero" stroke="#000000">
            <g id="search-icon" transform="translate(125.000000, 525.000000)">
                <path d="M24.706,4.3 C36.024,4.3 45.231,13.78 45.231,25.431 C45.231,37.082 36.025,46.56 24.706,46.56 C13.387,46.56 4.186,37.08 4.186,25.426 C4.186,13.772 13.392,4.3 24.706,4.3 M24.706,0.5 C11.339,0.5 0.5,11.661 0.5,25.426 C0.5,39.191 11.339,50.356 24.706,50.356 C38.073,50.356 48.916,39.195 48.916,25.426 C48.916,11.657 38.078,0.5 24.706,0.5 Z" id="Path_102"></path>
                <polygon id="Path_103" transform="translate(47.817078, 49.227645) rotate(-45.000000) translate(-47.817078, -49.227645) " points="44.2420784 38.1846455 51.7170784 38.0746455 51.3970784 60.2746455 43.9170784 60.3806455"></polygon>
            </g>
        </g>
    </g>
</svg>