<?xml version="1.0" encoding="UTF-8"?>
<svg width="73px" height="60px" viewBox="0 0 73 60" version="1.1" xmlns="http://www.w3.org/2000/svg" xmlns:xlink="http://www.w3.org/1999/xlink">
    <title>weather-sun</title>
    <g id="Page-1" stroke="none" stroke-width="1" fill="none" fill-rule="evenodd">
        <g id="weather-sun" fill-rule="nonzero">
            <path d="M31.6741102,11.7191843 L27.4710691,7.49785343 C26.9754637,6.90930983 26.093555,6.83144803 25.5011336,7.3238094 C24.9087123,7.81617078 24.8303375,8.69230686 25.3259429,9.28085046 C25.3755034,9.33962849 25.4298663,9.39439892 25.4886475,9.44439841 L29.6916886,13.6657293 C30.278155,14.1649608 31.1610241,14.0972134 31.663545,13.5145858 C32.1080531,12.9991331 32.1126633,12.2397897 31.6741102,11.7191843 Z" id="Path" fill="#FFFFFF"></path>
            <path d="M65.6836431,7.48974649 C65.2025208,6.9107866 64.3463841,6.83419269 63.771275,7.31853657 C63.7138387,7.36697095 63.6603185,7.4200986 63.6114604,7.47754403 L59.486489,11.5850805 C58.91138,12.0694243 58.8352955,12.9312936 59.3164179,13.5102535 C59.7975402,14.0892134 60.6536769,14.1658073 61.2287859,13.6814634 C61.2862222,13.633029 61.3397424,13.5799014 61.3886006,13.522456 L65.5135719,9.41491953 C66.0884945,8.93057566 66.1647654,8.06870638 65.6836431,7.48974649 Z" id="Path" fill="#FFFFFF"></path>
            <path d="M40.971756,6.45144937 C40.9638077,6.41391996 40.9542698,6.37692163 40.9429657,6.34027735 L39.529945,1.01534977 C39.3829909,0.323002968 38.7038578,-0.118852724 38.0130674,0.0282554809 C37.3222769,0.175363686 36.8814144,0.856203828 37.028192,1.54855063 C37.0361402,1.58608004 37.0456781,1.62307837 37.0569823,1.65972265 L38.4700029,6.98465023 C38.6169571,7.67699703 39.2960901,8.11885272 39.9868806,7.97174452 C40.677671,7.82463631 41.1187101,7.14379617 40.971756,6.45144937 Z" id="Path" fill="#FFFFFF"></path>
            <path d="M59.7744563,35.4555173 C59.5256499,35.2072987 59.2671473,34.9640079 58.9987657,34.7254626 L59.2183008,34.331233 C59.4907072,33.8316931 59.73494,33.3173696 59.9500843,32.7908176 C63.0672994,25.0239481 59.2830636,16.2065299 51.4978012,13.0966794 C51.4831655,13.090839 51.4687128,13.0849985 51.4540771,13.0793406 C44.4157828,10.2804934 36.3862876,13.0837209 32.6326037,19.6498329 C23.4578673,17.0935464 13.9430344,22.4411971 11.3805113,31.5944405 C10.9540644,33.1175171 10.7402007,34.69188 10.7449572,36.2731785 C10.7449572,36.4921949 10.7449572,36.7208846 10.7449572,36.95943 C4.37533013,37.4100562 -0.42224294,42.9267146 0.0294504674,49.2812932 C0.456263233,55.2872708 5.44172173,59.9552406 11.4767408,59.9999782 L11.51333,59.9999782 L49.5660755,59.9999782 C57.5238559,60.0136449 63.9860536,53.5891635 63.9999788,45.6501837 C64.0065436,41.8265222 62.4858973,38.1578148 59.7744563,35.4555173 Z M28.2248884,21.906067 C35.3054432,22.0011566 41.2954576,27.1540652 42.4311857,34.1270002 C42.5360137,34.8492068 43.207791,35.3500244 43.9318909,35.245444 C44.0716615,35.225185 44.2074074,35.1828418 44.333823,35.1198746 C45.1440903,34.7156068 45.9986306,34.4069762 46.8804298,34.2000057 C53.1973685,32.6942679 59.5417491,36.5825392 61.0510527,42.8845539 C62.5603563,49.1863861 58.662877,55.5157779 52.3459383,57.0215157 C51.4401732,57.2374294 50.5119058,57.345295 49.5807112,57.3427841 L11.5279657,57.3427841 C6.60946536,57.3383595 2.62581856,53.3568236 2.63020564,48.4499435 C2.63240462,46.0982547 3.56890464,43.8434808 5.23462698,42.1795036 L5.21999131,42.1868041 C6.88790901,40.5200893 9.1525962,39.5847067 11.51333,39.5878094 L12.1207104,39.5878094 C12.8504815,39.6374531 13.4825596,39.0873569 13.5321379,38.3593099 C13.5400046,38.2452388 13.5328697,38.1304377 13.5110991,38.0181918 C13.4818278,37.7650453 13.457496,37.4901797 13.4379208,37.19323 L13.4379208,36.2660605 L13.4379208,36.2660605 C13.5464077,28.2270631 20.1666707,21.7978364 28.2248884,21.906067 Z M50.4588515,15.5469255 C56.8925096,18.1077749 60.0325929,25.382405 57.4766559,31.8052438 C57.2915146,32.2474744 57.0814927,32.6789367 56.847322,33.0974406 L56.847322,33.2142493 C53.1735855,31.0835847 48.7450143,30.6776743 44.7436218,32.1045662 C44.0050692,29.1650009 42.5003393,26.4725592 40.3821917,24.3002814 C41.862041,21.559291 45.158909,20.3501379 48.0659192,21.4822702 C48.7607477,21.7102298 49.5093623,21.3329741 49.7378617,20.6397871 C49.9475177,20.0039095 49.6473035,19.3120001 49.0391913,19.0292864 C45.0921337,17.4514557 40.5792245,18.9214209 38.3258799,22.5189479 C37.3271783,21.7699118 36.2501758,21.1309314 35.11335,20.6135051 C36.5425233,18.3085399 38.6846368,16.5301267 41.216425,15.5469255 C44.1841733,14.3695298 47.4911032,14.3695298 50.4588515,15.5469255 Z" id="Shape" fill="#06151B"></path>
            <path d="M28.2248884,21.906067 C35.3054432,22.0011566 41.2954576,27.1540652 42.4311857,34.1270002 C42.5360137,34.8492068 43.207791,35.3500244 43.9318909,35.245444 C44.0716615,35.225185 44.2074074,35.1828418 44.333823,35.1198746 C45.1440903,34.7156068 45.9986306,34.4069762 46.8804298,34.2000057 C53.1973685,32.6942679 59.5417491,36.5825392 61.0510527,42.8845539 C62.5603563,49.1863861 58.662877,55.5157779 52.3459383,57.0215157 C51.4401732,57.2374294 50.5119058,57.345295 49.5807112,57.3427841 L11.5279657,57.3427841 C6.60946536,57.3383595 2.62581856,53.3568236 2.63020564,48.4499435 C2.63240462,46.0982547 3.56890464,43.8434808 5.23462698,42.1795036 L5.21999131,42.1868041 C6.88790901,40.5200893 9.1525962,39.5847067 11.51333,39.5878094 L12.1207104,39.5878094 C12.8504815,39.6374531 13.4825596,39.0873569 13.5321379,38.3593099 C13.5400046,38.2452388 13.5328697,38.1304377 13.5110991,38.0181918 C13.4818278,37.7650453 13.457496,37.4901797 13.4379208,37.19323 L13.4379208,36.2660605 L13.4379208,36.2660605 C13.5464077,28.2270631 20.1666707,21.7978364 28.2248884,21.906067 Z M50.4588515,15.5469255 C56.8925096,18.1077749 60.0325929,25.382405 57.4766559,31.8052438 C57.2915146,32.2474744 57.0814927,32.6789367 56.847322,33.0974406 L56.847322,33.2142493 C53.1735855,31.0835847 48.7450143,30.6776743 44.7436218,32.1045662 C44.0050692,29.1650009 42.5003393,26.4725592 40.3821917,24.3002814 C41.862041,21.559291 45.158909,20.3501379 48.0659192,21.4822702 C48.7607477,21.7102298 49.5093623,21.3329741 49.7378617,20.6397871 C49.9475177,20.0039095 49.6473035,19.3120001 49.0391913,19.0292864 C45.0921337,17.4514557 40.5792245,18.9214209 38.3258799,22.5189479 C37.3271783,21.7699118 36.2501758,21.1309314 35.11335,20.6135051 C36.5425233,18.3085399 38.6846368,16.5301267 41.216425,15.5469255 C44.1841733,14.3695298 47.4911032,14.3695298 50.4588515,15.5469255 Z" id="Shape-Copy" fill="#FFFFFF"></path>
            <path d="M72.9414742,19.912194 C72.7419064,19.2726076 72.0811992,18.8893201 71.4185037,19.0284538 L65.9810017,20.4572981 C65.2828757,20.6359037 64.86259,21.3387165 65.0410081,22.0290269 C65.2212338,22.7205876 65.9347251,23.1369171 66.6348397,22.9588474 C66.6362858,22.9584902 66.6377319,22.9581329 66.6389973,22.9577757 L72.0764993,21.5289314 C72.7673946,21.3185341 73.1545997,20.5946458 72.9414742,19.912194 Z" id="Path" fill="#FFFFFF"></path>
            <path d="M72.0544638,33.4930876 L66.6642899,32.0497954 C65.9716526,31.855303 65.2493693,32.2478081 65.0508312,32.9263314 C64.8522932,33.6048548 65.2529627,34.31242 65.9456001,34.5069124 L71.3357739,35.9502046 C72.0284113,36.144697 72.7506946,35.7521919 72.9492326,35.0736686 C73.147591,34.3951452 72.7471011,33.68758 72.0544638,33.4930876 Z" id="Path" fill="#FFFFFF"></path>
            <path d="M53.0745997,0.0507014698 C52.3967126,-0.14732978 51.6898109,0.252316996 51.4955009,0.943186198 L50.0535621,6.31960023 C49.8523941,7.0061683 50.2353871,7.72911677 50.9090538,7.93413736 C50.9238249,7.9386177 50.9387718,7.94291883 50.9538946,7.94686154 C51.6284406,8.14919392 52.3362215,7.75599884 52.5347519,7.0685347 C52.5379171,7.05796109 52.5407307,7.04720826 52.5435442,7.03645543 L53.9503138,1.6600414 C54.1444479,0.9691722 53.7524868,0.24873272 53.0745997,0.0507014698 Z" id="Path" fill="#FFFFFF"></path>
        </g>
    </g>
</svg>